# xmcd
#
# Track frame offsets:
#	150
#	15846
#	31096
#	49166
#	64963
#	82493
#	99312
#	116793
#	131627
#	148129
#	161551
#	179307
#	193369
#	209701
#	227123
#	239367
#	255025
#	271300
#	284538
#	299677
#
# Disc length: 4293 seconds
# Revision: 0
# Processed by: cddbd v1.5.2PL0 Copyright (c) Steve Scherf et al.
# Submitted via: dBpowerAMP V12.0
#
DISCID=3610c314
DTITLE=Various Artist - Country Radio December 2006
DYEAR=2006
DGENRE=Country
TTITLE0=Gord Bamford - We're All Cowboys
TTITLE1=Shane Yellowbird - They're All About You
TTITLE2=Chris Cummings - Dixie Beauxderaunt
TTITLE3=Gary Allen - A Feelin Like That
TTITLE4=Jake Owen - Startin With Me
TTITLE5=Brooks and Dunn - Hillbilly Deluxe
TTITLE6=Gretchen Wilson Feat John Rich - Come To Bed
TTITLE7=Jimmy Wayne - That's All I Ever Need
TTITLE8=Kenny Rogers - The Last Ten Years
TTITLE9=Danielle Peck - Isn't That Everything
TTITLE10=Rushlow Harris - Bagpipes Cryin
TTITLE11=Ennis Sisters - Holdin On
TTITLE12=Josh Gracin - I Keep Coming Back
TTITLE13=Rockie Lynne - More
TTITLE14=Donovan Chapman - House Like That
TTITLE15=Aaron Tippin - He Believed
TTITLE16=Povertyneck Hillbillies - Mr Right Now
TTITLE17=George Jones - God's Country
TTITLE18=Corb Lund - Counterfeiter's Blues
TTITLE19=Brad Paisley - Born On Christmas Day
EXTD=
EXTT0=
EXTT1=
EXTT2=
EXTT3=
EXTT4=
EXTT5=
EXTT6=
EXTT7=
EXTT8=
EXTT9=
EXTT10=
EXTT11=
EXTT12=
EXTT13=
EXTT14=
EXTT15=
EXTT16=
EXTT17=
EXTT18=
EXTT19=
PLAYORDER=
